<mxfile host="65bd71144e">
    <diagram id="SO8u23o8SQzbMZVnVdB6" name="Darstellungselemente">
        <mxGraphModel dx="707" dy="594" grid="0" gridSize="10" guides="1" tooltips="1" connect="1" arrows="1" fold="1" page="1" pageScale="1" pageWidth="827" pageHeight="1169" math="0" shadow="0">
            <root>
                <mxCell id="0"/>
                <mxCell id="1" parent="0"/>
                <mxCell id="5" value="" style="shape=folder;fontStyle=1;tabWidth=80;tabHeight=20;tabPosition=left;html=1;boundedLbl=1;fillColor=#f5f5f5;fontColor=#333333;strokeColor=#666666;" vertex="1" parent="1">
                    <mxGeometry x="70" y="120" width="370" height="140" as="geometry"/>
                </mxCell>
                <mxCell id="2" value="" style="shape=folder;fontStyle=1;tabWidth=80;tabHeight=20;tabPosition=left;html=1;boundedLbl=1;fillColor=#FAFAFA;fontColor=#333333;strokeColor=#666666;" vertex="1" parent="1">
                    <mxGeometry x="90" y="165" width="150" height="80" as="geometry"/>
                </mxCell>
                <mxCell id="11" style="edgeStyle=none;html=1;endArrow=open;endFill=0;" edge="1" parent="1" source="3" target="2">
                    <mxGeometry relative="1" as="geometry"/>
                </mxCell>
                <mxCell id="3" value="" style="shape=folder;fontStyle=1;tabWidth=80;tabHeight=20;tabPosition=left;html=1;boundedLbl=1;fillColor=#FAFAFA;fontColor=#333333;strokeColor=#666666;" vertex="1" parent="1">
                    <mxGeometry x="270" y="160" width="150" height="90" as="geometry"/>
                </mxCell>
                <mxCell id="6" value="Bezeichnung" style="text;html=1;align=center;verticalAlign=middle;resizable=0;points=[];autosize=1;strokeColor=none;fillColor=none;" vertex="1" parent="1">
                    <mxGeometry x="70" y="120" width="80" height="20" as="geometry"/>
                </mxCell>
                <mxCell id="7" value="Bezeichnung" style="text;html=1;align=center;verticalAlign=middle;resizable=0;points=[];autosize=1;strokeColor=none;fillColor=none;" vertex="1" parent="1">
                    <mxGeometry x="90" y="165" width="80" height="20" as="geometry"/>
                </mxCell>
                <mxCell id="8" value="Bezeichnung" style="text;html=1;align=center;verticalAlign=middle;resizable=0;points=[];autosize=1;strokeColor=none;fillColor=none;" vertex="1" parent="1">
                    <mxGeometry x="270" y="160" width="80" height="20" as="geometry"/>
                </mxCell>
                <mxCell id="12" value="" style="shape=folder;fontStyle=1;tabWidth=35;tabHeight=10;tabPosition=left;html=1;boundedLbl=1;" vertex="1" parent="1">
                    <mxGeometry x="287.5" y="190" width="115" height="50" as="geometry"/>
                </mxCell>
                <mxCell id="13" value="Bezeichnung" style="text;html=1;align=center;verticalAlign=middle;resizable=0;points=[];autosize=1;strokeColor=none;fillColor=none;" vertex="1" parent="1">
                    <mxGeometry x="305" y="210" width="80" height="20" as="geometry"/>
                </mxCell>
                <mxCell id="14" value="«artifact»&lt;br&gt;&lt;b&gt;Bezeichnung&lt;/b&gt;" style="html=1;" vertex="1" parent="1">
                    <mxGeometry x="110" y="190" width="110" height="50" as="geometry"/>
                </mxCell>
            </root>
        </mxGraphModel>
    </diagram>
</mxfile>